<svg aria-hidden="true" style="position: absolute; width: 0; height: 0; overflow: hidden;" version="1.1" xmlns="http://www.w3.org/2000/svg" xmlns:xlink="http://www.w3.org/1999/xlink">
<defs>
<symbol id="icon-pil" viewBox="0 0 32 32">
<title>pil</title>
<path d="M5.601 18.621c-1.952 1.953-1.952 5.119 0 7.072l0.708 0.707c1.952 1.951 5.118 1.951 7.071 0l5.656-5.658-7.778-7.778-5.657 5.657zM12.672 25.693c-1.562 1.562-4.095 1.562-5.656 0l-0.707-0.707c-1.562-1.562-1.562-4.096 0-5.658l4.949-4.949 6.364 6.363-4.95 4.951zM25.4 7.308l-0.707-0.707c-1.952-1.953-5.118-1.953-7.071 0l-5.657 5.656 7.778 7.778 5.657-5.656c1.953-1.953 1.953-5.119 0-7.071z"></path>
</symbol>
<symbol id="icon-briefcase" viewBox="0 0 20 20">
<title>briefcase</title>
<path d="M9 10h2v2h9c0 0-0.149-4.459-0.2-5.854-0.050-1.326-0.525-2.146-2-2.146h-3.208c-0.497-0.938-1.032-1.945-1.197-2.256-0.331-0.623-0.444-0.744-1.179-0.744h-4.433c-0.735 0-0.847 0.121-1.179 0.744-0.165 0.311-0.7 1.318-1.196 2.256h-3.209c-1.476 0-1.945 0.82-2 2.146s-0.199 5.854-0.199 5.854h9v-2zM7.649 2.916c0.23-0.432 0.308-0.516 0.817-0.516h3.067c0.509 0 0.588 0.084 0.816 0.516 0.086 0.16 0.318 0.6 0.575 1.084h-5.85c0.257-0.484 0.489-0.924 0.575-1.084zM11 15h-2v-2h-8.5c0 0 0.124 1.797 0.199 3.322 0.031 0.633 0.218 1.678 1.8 1.678h15.001c1.582 0 1.765-1.047 1.8-1.678 0.087-1.568 0.2-3.322 0.2-3.322h-8.5v2z"></path>
</symbol>
<symbol id="icon-globe" viewBox="0 0 20 20">
<title>globe</title>
<path d="M10 0.4c-5.295 0-9.601 4.307-9.601 9.6s4.306 9.6 9.601 9.6c5.293 0 9.6-4.307 9.6-9.6s-4.307-9.6-9.6-9.6zM18.188 10c0 1.873-0.636 3.6-1.696 4.98-0.3-0.234-0.619-0.867-0.319-1.523 0.303-0.66 0.382-2.188 0.312-2.783-0.066-0.594-0.375-2.025-1.214-2.039-0.838-0.012-1.413-0.289-1.911-1.283-1.033-2.068 1.939-2.465 0.906-3.609-0.289-0.322-1.783 1.322-2.002-0.869-0.014-0.157 0.135-0.392 0.336-0.636 3.244 1.090 5.588 4.157 5.588 7.762zM8.875 1.893c-0.196 0.382-0.713 0.537-1.027 0.824-0.684 0.619-0.978 0.533-1.346 1.127-0.371 0.594-1.567 1.449-1.567 1.879s0.604 0.936 0.906 0.838c0.302-0.1 1.099-0.094 1.567 0.070 0.469 0.166 3.914 0.332 2.816 3.244-0.348 0.926-1.873 0.77-2.279 2.303-0.061 0.225-0.272 1.186-0.285 1.5-0.025 0.486 0.344 2.318-0.125 2.318-0.471 0-1.738-1.639-1.738-1.936s-0.328-1.338-0.328-2.23c0-0.891-1.518-0.877-1.518-2.062 0-1.068 0.823-1.6 0.638-2.113-0.181-0.51-1.627-0.527-2.23-0.59 1.053-2.731 3.53-4.758 6.516-5.172zM7.424 17.77c0.492-0.26 0.542-0.596 0.988-0.613 0.51-0.023 0.925-0.199 1.5-0.326 0.51-0.111 1.423-0.629 2.226-0.695 0.678-0.055 2.015 0.035 2.375 0.689-1.295 0.861-2.848 1.363-4.514 1.363-0.899 0-1.765-0.149-2.575-0.418z"></path>
</symbol>
<symbol id="icon-line-graph" viewBox="0 0 20 20">
<title>line-graph</title>
<path d="M0.69 11.331l1.363 0.338 1.026-1.611-1.95-0.482c-0.488-0.121-0.981 0.174-1.102 0.66-0.121 0.483 0.175 0.973 0.663 1.095zM18.481 11.592l-4.463 4.016-5.247-4.061c-0.1-0.076-0.215-0.133-0.338-0.162l-0.698-0.174-1.027 1.611 1.1 0.273 5.697 4.408c0.166 0.127 0.362 0.189 0.559 0.189 0.219 0 0.438-0.078 0.609-0.232l5.028-4.527c0.372-0.334 0.401-0.906 0.064-1.277s-0.911-0.4-1.284-0.064zM8.684 7.18l4.887 3.129c0.413 0.264 0.961 0.154 1.24-0.246l5.027-7.242c0.286-0.412 0.183-0.977-0.231-1.26-0.414-0.285-0.979-0.182-1.265 0.23l-4.528 6.521-4.916-3.147c-0.204-0.131-0.451-0.174-0.688-0.123-0.236 0.053-0.442 0.197-0.571 0.4l-7.497 11.767c-0.27 0.422-0.144 0.983 0.28 1.25 0.15 0.096 0.319 0.141 0.486 0.141 0.301 0 0.596-0.149 0.768-0.42l7.008-11z"></path>
</symbol>
</defs>
</svg>
